<?xml version="1.0" encoding="UTF-8"?>
<svg id="Layer_1" data-name="Layer 1" xmlns="http://www.w3.org/2000/svg" xmlns:xlink="http://www.w3.org/1999/xlink" viewBox="0 0 128 128">
  <defs>
    <style>
      .cls-1 {
        fill: url(#linear-gradient);
      }

      .cls-2 {
        fill: #00b0ff;
      }
    </style>
    <linearGradient id="linear-gradient" x1="64" y1="50.12" x2="64" y2="100.45" gradientUnits="userSpaceOnUse">
      <stop offset="0" stop-color="#0097f6"/>
      <stop offset=".02" stop-color="#009bf7"/>
      <stop offset=".1" stop-color="#00a7fb"/>
      <stop offset=".2" stop-color="#00aefe"/>
      <stop offset=".5" stop-color="#00b0ff"/>
      <stop offset=".8" stop-color="#00aefe"/>
      <stop offset=".9" stop-color="#00a7fb"/>
      <stop offset=".98" stop-color="#009bf7"/>
      <stop offset="1" stop-color="#0097f6"/>
    </linearGradient>
  </defs>
  <path class="cls-2" d="M80.46,21.99c-.54-8.7-7.76-15.59-16.6-15.59s-16.08,6.91-16.6,15.62l-4.85-.05c-1.36-.02-2.58.83-3.03,2.11l-2.42,6.76h54.08l-2.42-6.77c-.46-1.27-1.67-2.12-3.02-2.11l-5.13.03ZM54.95,21.95c.4-4.58,4.25-8.18,8.93-8.18s8.53,3.59,8.93,8.18h-17.86Z"/>
  <path class="cls-1" d="M98.71,84.98l-6.33-39.04h-9.68l6.57,40.57c.52,3.19-.35,6.31-2.45,8.77-2.1,2.46-5.03,3.82-8.27,3.82h-29.13c-3.19,0-6.1-1.33-8.19-3.73-2.09-2.41-3-5.47-2.56-8.63l5.72-40.79h-9.65l-5.54,39.47c-1.72,12.28,7.82,23.24,20.22,23.24h29.13c12.57,0,22.16-11.26,20.15-23.67Z"/>
  <rect class="cls-2" x="29.15" y="34.02" width="69.71" height="13.05" rx="3.18" ry="3.18"/>
  <path class="cls-2" d="M68.92,89.41c1.62-4.63-1.56-9.5-3.92-13.53-.27-.47-.94-.47-1.22-.01-1.5,2.45-4.99,8.89-3.46,13.61.19.6-.42,1.14-.98.87-5.82-2.77-9.38-10.4-8.03-16.28,1.72-7.52,10.75-11.09,11.68-19.24.07-.57.74-.85,1.17-.47,4.41,3.84,12.32,12.47,12.84,21.59.29,5.04-2.19,11.72-7.07,14.32-.58.31-1.23-.24-1.01-.86Z"/>
  <path class="cls-2" d="M76.59,112.1h-41.64c-1.76,0-3.18,1.43-3.18,3.18v3.13c0,1.76,1.43,3.18,3.18,3.18h58.1c1.76,0,3.18-1.43,3.18-3.18v-3.13c0-1.76-1.43-3.18-3.18-3.18h-16.46Z"/>
  <path class="cls-2" d="M81.72,96.29h-35.05c-3.52,0-6.37,2.85-6.37,6.37v6.3h47.47v-6.62c0-3.34-2.71-6.05-6.05-6.05Z"/>
</svg>
