<svg xmlns="http://www.w3.org/2000/svg" width="413.818" height="153.121" viewBox="0 0 413.818 153.121">
  <g id="Group_285" data-name="Group 285" transform="translate(741.422 320.835)">
    <path id="Path_76" data-name="Path 76" d="M131.353,32.192c-2.2-2.651-6.556-5-10.573-5.7a30.1,30.1,0,0,0-5.322-.5,28.506,28.506,0,0,0-5.974.683c-.412.081-.808.159-1.187.227-2.982.517-10.617,4.314-13.051,6.8a37.472,37.472,0,0,0-8.074,10.562,22.98,22.98,0,0,0-2.225,12.081,18.559,18.559,0,0,0,3.773,8.781c3.148,4.176,9.923,6.982,16.858,6.982a26.284,26.284,0,0,0,3.391-.22A32.965,32.965,0,0,0,124.239,64.8a41.181,41.181,0,0,0,7.945-9.524,27.214,27.214,0,0,0,3.053-12.4,17.161,17.161,0,0,0-3.885-10.681M117.808,44.739a20.131,20.131,0,0,1-3.283,7.746,17.329,17.329,0,0,1-5.947,5.951,5.218,5.218,0,0,1-2.39.686,2.24,2.24,0,0,1-1.728-.707c-.845-.916-1.18-2.762-.964-5.335a15.986,15.986,0,0,1,1.849-6.353l.213-.446a27.256,27.256,0,0,1,2.783-4.815c.227-.247.463-.554.72-.882A10.81,10.81,0,0,1,110.89,38.6a7.966,7.966,0,0,1,2.972-1.427l.095-.024a5.175,5.175,0,0,1,1.224-.166,2.494,2.494,0,0,1,2,.849c.686.808,1.346,2.664.622,6.9" transform="translate(-539.45 -258.956)" fill="#008061"/>
    <path id="Path_77" data-name="Path 77" d="M118.874,40.01c-1.285-12.713-13.714-14.082-19-14.082a26.107,26.107,0,0,0-3.043.156l-.017,0-.02,0c-.369.071-9,1.805-14.674,6.394a42.368,42.368,0,0,0-7.54,7.932,26.541,26.541,0,0,0-3.817,9.332c-.037.172-.068.3-.088.382-.832,3.073-1.366,12.314,6.015,18.106a20.5,20.5,0,0,0,12.72,4.149,25.4,25.4,0,0,0,4.287-.369,26.1,26.1,0,0,0,6.2-1.981l.554-.233a36.311,36.311,0,0,0,10.684-7.252,22.925,22.925,0,0,0,4.635-6.765,4.478,4.478,0,0,0-.649-4.061,5.036,5.036,0,0,0-4.034-1.975A5.323,5.323,0,0,0,107.8,50.9a14.871,14.871,0,0,0-2.7,2.975,21.43,21.43,0,0,1-2.62,3.033,11.573,11.573,0,0,1-3.168,2.39c-.095.044-.193.088-.287.139a9.187,9.187,0,0,1-3.959.923,5.439,5.439,0,0,1-4.094-1.609c-1.346-1.481-1.876-3.932-1.565-7.293a15.547,15.547,0,0,1,2.7-7.912,19.194,19.194,0,0,1,7.844-6.664,8.056,8.056,0,0,1,2.911-.555,3.012,3.012,0,0,1,1.011.128c-.463,3.594.321,6.664,2.123,8.236,1.734,1.515,2.837,2.387,5.352,2.678a2.381,2.381,0,0,0,.254.014,8.672,8.672,0,0,0,5.822-2.509,6.036,6.036,0,0,0,1.45-4.869" transform="translate(-574.239 -259.099)" fill="#008061"/>
    <path id="Path_78" data-name="Path 78" d="M104.479,34.207l-.152-.223a12.62,12.62,0,0,0-5.19-4.686,28.081,28.081,0,0,0-13.46-3.33,26.8,26.8,0,0,0-6.383.707c-.859.091-9.788,1.207-15.4,7.939-3.726,4.477-3.983,9.247-.747,14.184.064.1.118.179.156.243.761,1.241,5.707,4.848,7.929,5.586,1.457.483,2.5.9,3.422,1.268.676.27,1.315.524,1.988.751a9.128,9.128,0,0,1,2.539,1.244c.186.132.375.257.582.379a2.629,2.629,0,0,1,.764,2.671c-.183.859-.855,2.346-3.317,2.651a11.639,11.639,0,0,1-1.44.1c-2.536,0-4.5-1.2-6-3.679-.527-.869-.757-1.319-.94-1.68A14.577,14.577,0,0,0,66.8,55.406a6.821,6.821,0,0,0-5.427-2.587A4.186,4.186,0,0,0,60.031,53l-.024.01a6.247,6.247,0,0,0-3.249,2.326,5.867,5.867,0,0,0-.548,5.842,14.49,14.49,0,0,0,2.14,3.753,17.719,17.719,0,0,0,4.554,3.7q.507.254,1.035.527a21.463,21.463,0,0,0,7.127,2.637,59.079,59.079,0,0,0,6.373.372,32.568,32.568,0,0,0,10.833-1.636A22.448,22.448,0,0,0,98.694,63.3a10.707,10.707,0,0,0,2.4-8.774,14.068,14.068,0,0,0-3.266-6.018,5.768,5.768,0,0,1-.487-.467c-.487-.521-.734-.781-5.349-3.357a30.3,30.3,0,0,0-3.98-1.647,31.433,31.433,0,0,1-4.084-1.684,3.653,3.653,0,0,1-2.12-2.816,3.126,3.126,0,0,1,.112-1.525,4.31,4.31,0,0,1,2.259-1.937,10.441,10.441,0,0,1,1.123-.044,8.626,8.626,0,0,1,1.393.085,5.164,5.164,0,0,1,.72.206c.223.071.46.152.751.23a8.963,8.963,0,0,1,2.188,1.3c.135,1.292,2.022,3.861,3.185,4.774a8.5,8.5,0,0,0,5.329,2,7.272,7.272,0,0,0,5.3-2.191c.977-1.234,2.076-4.622.314-7.232" transform="translate(-608.828 -259.006)" fill="#008061"/>
    <path id="Path_79" data-name="Path 79" d="M88.55,35.113c-2.911-5.957-9.423-7.689-10.13-7.861a20.5,20.5,0,0,0-7.164-1.261,18.954,18.954,0,0,0-4.067.433c-6.346,1.068-12.341,4.99-12.916,5.376-.578.291-5.893,3.1-9.947,10.627-3.716,6.891-3.482,10.336-3.239,13.987l.03.409c.331,4.98,3.577,11.347,11.688,14.265a21.509,21.509,0,0,0,7.306,1.254,29.656,29.656,0,0,0,10.3-2.056c.45-.162.8-.287,1.011-.341,3.34-.862,12.361-6.955,13.443-12.175a4.315,4.315,0,0,0-1.707-4.514A5.679,5.679,0,0,0,79.607,52c-2.685,0-5.149,1.876-6.377,3-.372.341-.784.757-1.221,1.2a19.053,19.053,0,0,1-6.9,4.977,8.19,8.19,0,0,1-2.759.582,2.9,2.9,0,0,1-3.009-2.306c-.967-3.121.585-8.091,1.3-8.669a12.989,12.989,0,0,1,1.991-.1c1.521,0,3.567.088,5.93.186l1.116.047c.866,0,1.663-.007,2.421-.007,6.015,0,9.538.162,9.572.162h.051c.024,0,2.455-.054,3.648-.054h.22c.382,0,.73.007,1.048.007,1.373,0,2.008-.051,2.265-.565,1.555-3.1,2.008-11.2-.355-15.336M74.36,41.966a1.427,1.427,0,0,1-1.423.673c-.254,0-.544-.02-.859-.041-.247-.017-.514-.034-.795-.047-.568-.02-1.281-.03-2.181-.03-.866,0-1.762.01-2.566.017-.642.01-1.221.014-1.667.014h-.007a3.339,3.339,0,0,1,.521-.94c1.427-1.893,5.646-6.793,8.044-6.793.291,0,1.062,0,1.508,1.684a6.794,6.794,0,0,1-.575,5.464" transform="translate(-643.876 -258.949)" fill="#008061"/>
    <path id="Path_80" data-name="Path 80" d="M90.645,26.806a1.645,1.645,0,0,0-1.508-.619,6.944,6.944,0,0,0-.747.044c-.068.007-.318.014-1.156.014-.412,0-.9,0-1.43,0-.612,0-1.285,0-1.941,0-.744,0-1.471,0-2.1.014-6,.085-17.007.2-17.118.2h-.081l-.074.02a3.281,3.281,0,0,0-2.066,1.579,2.263,2.263,0,0,0,.186,2.035c.2.375.636.531,1.437.811,2.208.781,3.4,1.508,2.989,2.911A46.578,46.578,0,0,1,63.424,42.4l-.281.48a44.773,44.773,0,0,1-4.619,6.945c-.25.284-.483.568-.713.855a18.905,18.905,0,0,1-5.024,4.453,5.148,5.148,0,0,1-2.647,1.011,1.466,1.466,0,0,1-1.4-.815c-.467-.913.064-3.063.663-4.629.26-.683.815-1.914,1.4-3.219.713-1.582,1.525-3.374,2.086-4.788.977-2.468,2.786-6.285,2.8-6.323l3.7-8.284a1.339,1.339,0,0,0,.166-1.322c-.382-.774-1.467-.774-1.826-.774q-.172,0-.365.01c-.054,0-.233.01-.808.01-3.063,0-13.108-.142-13.21-.142h-.01l-9.065,0h0a2.57,2.57,0,0,0-1.805.713,2.376,2.376,0,0,0-.612,1.8c.071,1.8,1.863,2.39,2.931,2.742a4.2,4.2,0,0,1,.686.26,2.011,2.011,0,0,0,.44.308c.446.264,1.129.663-.1,3.746-.653,1.636-1.21,3.07-1.7,4.307-.771,1.988-1.332,3.425-1.775,4.409A28.878,28.878,0,0,0,29.363,56.2c-.176,5.751,2.262,10.177,6.519,11.84.183.074.372.152.554.233a7.361,7.361,0,0,0,2.309.686,12.126,12.126,0,0,0,1.312.064,29.119,29.119,0,0,0,4.5-.423,13.328,13.328,0,0,0,4.73-1.721c.21-.115.416-.227.619-.331,2.759-1.437,3.395-1.843,3.77-2.086l.281-.176a62.969,62.969,0,0,1-2.6,6.664c-.4.937-.72,1.674-.839,2a29.549,29.549,0,0,1-4.571,7.266,11.056,11.056,0,0,1-7.239,3.462H38.6a2.879,2.879,0,0,1-1.126-.152,1.213,1.213,0,0,1,.341-.281c1.163-.676,3.175-3.384,3.334-4.832a2.551,2.551,0,0,0,.176-.879c.041-.666.186-6.542-7.009-7.421a13.845,13.845,0,0,0-1.694-.1,10.32,10.32,0,0,0-9.754,6.265c-.014.051-1.153,5.041,1.954,8.588a19.986,19.986,0,0,0,12.185,6.319,26.9,26.9,0,0,0,4.162.325,32.29,32.29,0,0,0,12.439-2.695,33.357,33.357,0,0,0,11.915-8.311c2.576-2.8,5.694-8.574,5.826-8.818l.014-.024.01-.027,4.835-11.286L81.1,48.935l4.517-10.2c.027-.054,2.969-6.367,4.267-9.264.095-.21.227-.436.348-.659.385-.676.778-1.379.416-2" transform="translate(-687.476 -259.23)" fill="#008061"/>
    <path id="Path_81" data-name="Path 81" d="M149.98,7.969a7.127,7.127,0,0,0-5.258-2,13.23,13.23,0,0,0-7.269,2.478A26.417,26.417,0,0,0,131.3,14.9c-.014-2.891-.037-6.914-.037-6.914l0-.639H109.965v3.98l.575.061.487.047a6.7,6.7,0,0,1,2.806.676,2.8,2.8,0,0,1,.984,1.4,16.58,16.58,0,0,1,.325,4.5V42.652c0,5.028-.622,6.214-.818,6.458-.487.622-1.62,1.021-3.266,1.153l-.5.041-.6.044v4h27.549V50.317l-.605-.03-.517-.027a9.464,9.464,0,0,1-3.486-.605,2.638,2.638,0,0,1-1.227-1.308,9.349,9.349,0,0,1-.23-2.935l-.071-13a31.267,31.267,0,0,1,1.491-9.876,8.782,8.782,0,0,1,2.627-4.108,2.883,2.883,0,0,1,1.907-.784.99.99,0,0,1,.521.125c.024.017.341.227,2.069,1.724a7.809,7.809,0,0,0,5.268,1.944,6.281,6.281,0,0,0,4.791-2.16,8.311,8.311,0,0,0,1.934-5.792,7.474,7.474,0,0,0-2-5.515" transform="translate(-479.589 -306.634)" fill="#3666b1"/>
    <path id="Path_82" data-name="Path 82" d="M115.468,63.516l-.514-.03c-2.39-.135-3.351-.68-3.736-1.112-.254-.294-.866-1.4-.866-5.288V.409H88.342V4.436l.6.034.517.03c2.374.135,3.334.686,3.719,1.123.264.3.876,1.413.876,5.278V57.086c0,4.169-.632,4.97-.707,5.048a5.328,5.328,0,0,1-3.858,1.352l-.527.014-.619.02V67.58h27.731V63.55Z" transform="translate(-531.075 -319.861)" fill="#3666b1"/>
    <path id="Path_83" data-name="Path 83" d="M123.728,61.382l-.5-.034a7.11,7.11,0,0,1-3.32-.74A2.617,2.617,0,0,1,118.873,59l0-.02,0-.017c-.078-.243-.257-1.288-.257-5.738V.509H95.524V4.945h1.19c2.715,0,3.672.362,3.956.517a2.937,2.937,0,0,1,1.292,1.467c.054.135.352,1.048.352,5.619V23.233a17.352,17.352,0,0,0-3.78-2.6,14.7,14.7,0,0,0-6.383-1.342,18.452,18.452,0,0,0-10.241,3.114,20.663,20.663,0,0,0-7.462,9.136A32.485,32.485,0,0,0,71.775,44.97c0,6.231,1.457,11.587,4.341,15.911,3.641,5.43,8.669,8.182,14.954,8.182a14.163,14.163,0,0,0,6.752-1.623,20.154,20.154,0,0,0,4.49-3.6V69.3l.757-.139L123.8,65.337l.527-.1V61.426Zm-22.258-6.089c-2.282,3.821-4.69,5.758-7.154,5.758a4.073,4.073,0,0,1-2.559-.713A10.815,10.815,0,0,1,88.64,55.11c-.791-2.475-1.19-6.377-1.19-11.594,0-4.747.362-8.3,1.072-10.552a9.511,9.511,0,0,1,2.627-4.6,3.855,3.855,0,0,1,2.465-.754c3.09,0,5.66,1.9,7.858,5.822Z" transform="translate(-570.522 -319.623)" fill="#3666b1"/>
    <path id="Path_84" data-name="Path 84" d="M100.083,40.417l-2.509-1.809-.538-.385-.372.548-.314.463A19.584,19.584,0,0,1,91.418,44.7a8.652,8.652,0,0,1-4.818,1.42,9.426,9.426,0,0,1-7.438-3.614c-2.6-3.009-4.142-7.141-4.581-12.283h25.669l-.027-.669-.024-.568c-.277-7.492-2.272-13.257-5.92-17.132A17.573,17.573,0,0,0,81.136,5.964a20.971,20.971,0,0,0-15.617,7c-4.4,4.625-6.627,10.894-6.627,18.63,0,6.306,1.515,11.682,4.493,15.979,3.766,5.416,9.372,8.165,16.662,8.165A19.955,19.955,0,0,0,91.3,52.484c3.212-2.14,6.16-5.785,8.767-10.836l.213-.423.247-.487ZM74.3,22.538c0-3.952.916-7.073,2.735-9.278A4.035,4.035,0,0,1,80.4,11.614a3.762,3.762,0,0,1,2.133.517,6.331,6.331,0,0,1,2.333,3.178c.342.95.754,3.026.811,7.54H74.3Z" transform="translate(-601.197 -306.634)" fill="#3666b1"/>
    <path id="Path_85" data-name="Path 85" d="M91.508,46.56l-2.316-1.937-.541-.453-.4.578-.335.49c-.629.889-1.231,1.4-1.657,1.4a.613.613,0,0,1-.416-.128,1.262,1.262,0,0,1-.355-.6A16.987,16.987,0,0,1,85.3,42.4V25c0-5.072-.243-8.138-.761-9.646a13.974,13.974,0,0,0-5.42-6.458C76.361,6.948,72.618,5.964,68,5.964A34.5,34.5,0,0,0,57.123,7.7a19.141,19.141,0,0,0-8.392,5.139A10.92,10.92,0,0,0,45.6,20.205a6.65,6.65,0,0,0,2.509,5.156,8.921,8.921,0,0,0,6,2.106A7.883,7.883,0,0,0,59.628,25.5a6.39,6.39,0,0,0,2.188-4.869,7.2,7.2,0,0,0-2.188-4.774c-1.021-1.092-1.075-1.6-1.075-1.691,0-.128,0-.517.761-1.024a8.293,8.293,0,0,1,4.676-1.19,5.633,5.633,0,0,1,3,.808A4.119,4.119,0,0,1,68.7,14.528c.142.325.477,1.559.477,5.91v3.729c-9.91,4.426-16.469,8.054-19.509,10.779-3.286,2.952-4.957,6.35-4.957,10.1A9.535,9.535,0,0,0,47.7,52.2a10.4,10.4,0,0,0,7.428,2.843c4.341,0,9.217-2.174,14.508-6.458a8.545,8.545,0,0,0,2.688,4.348,10.609,10.609,0,0,0,6.931,2.11,12.623,12.623,0,0,0,6.607-1.762,18.881,18.881,0,0,0,5.477-5.45l.284-.409.338-.483ZM69.721,42.7c-1.971,1.6-3.7,2.414-5.132,2.414a3.955,3.955,0,0,1-3.016-1.089A4.7,4.7,0,0,1,60.112,40.6a8.053,8.053,0,0,1,1.809-4.818,27.055,27.055,0,0,1,7.8-6.525Z" transform="translate(-634.963 -306.634)" fill="#3666b1"/>
    <path id="Path_86" data-name="Path 86" d="M79.927,63.546l-.483-.054c-2.093-.23-2.9-.747-3.205-1.139-.176-.223-.74-1.278-.74-5.609V39.28c0-5.271-.348-8.95-1.068-11.239a12.588,12.588,0,0,0-4.5-6.2,12.978,12.978,0,0,0-8.158-2.644,15.73,15.73,0,0,0-7.1,1.711,25.02,25.02,0,0,0-5.244,3.739V.408h-21.3V4.36l.561.071.473.061c2.248.281,3,.859,3.249,1.177.169.216.717,1.261.717,5.575v45.5c0,4.531-.521,5.3-.582,5.379a4.788,4.788,0,0,1-3.351,1.369l-.49.047-.578.054v3.986H52.78V63.627l-.561-.071-.473-.061c-1.1-.142-1.19-.328-1.461-.886-.078-.159-.159-.335-.277-.531-.183-.291-.582-1.359-.582-5.335V33.052a15.4,15.4,0,0,1,3.516-4.013,5.376,5.376,0,0,1,3.131-1.1,2.654,2.654,0,0,1,1.667.554,3.1,3.1,0,0,1,1.072,1.616c.142.463.385,1.944.385,6.623V56.743c0,4.088-.514,5.116-.673,5.335a5.979,5.979,0,0,0-.463.683c-.291.48-.379.625-1.194.734l-.473.064-.558.074v3.946H80.5V63.61Z" transform="translate(-674.462 -319.863)" fill="#3666b1"/>
    <path id="Path_87" data-name="Path 87" d="M54.616,40.454l-.45-.338-.4.4-.331.341A20.159,20.159,0,0,1,48.558,44.8a9.088,9.088,0,0,1-4.115.977,9.4,9.4,0,0,1-5.785-1.826,17.452,17.452,0,0,1-5.345-8.06,34.13,34.13,0,0,1-2.029-11.705c0-4.808.808-8.385,2.4-10.63a3.768,3.768,0,0,1,3.155-1.944,2.465,2.465,0,0,1,1.86.835c.4.412.916,1.359,1.129,3.516.331,3.516,1.227,5.941,2.745,7.4a7.909,7.909,0,0,0,5.721,2.208,7.568,7.568,0,0,0,5.356-1.944,6.831,6.831,0,0,0,2.106-5.21c0-3.222-1.576-6.147-4.69-8.7C48.02,7.225,43.905,5.964,38.837,5.964c-7.536,0-13.534,2.979-17.832,8.855A27.766,27.766,0,0,0,15.7,31.589a25.935,25.935,0,0,0,5.826,16.966A19.443,19.443,0,0,0,37.268,55.73,21.316,21.316,0,0,0,48.26,52.673a23.881,23.881,0,0,0,8.595-9.261l.23-.412.27-.49-.446-.335Z" transform="translate(-704.047 -306.634)" fill="#3666b1"/>
    <path id="Path_88" data-name="Path 88" d="M45.239,36.955c-2.813-3.418-8.284-7.063-16.263-10.84a103.7,103.7,0,0,1-10.583-5.484,15.333,15.333,0,0,1-4.274-4.084,5.85,5.85,0,0,1-.855-3.171A6.574,6.574,0,0,1,15.83,8.294a10.7,10.7,0,0,1,7.266-2.3,17.252,17.252,0,0,1,11.462,4.632,20.6,20.6,0,0,1,6.715,12.314l.085.446.091.531h4.172l-.017-.659L45.039.629,45.029,0H41.492l-.115.5-.095.429c-.534,2.424-.967,3.016-1.089,3.138a1.481,1.481,0,0,1-1.187.412c-.325,0-1.393-.142-4.209-1.454A33.84,33.84,0,0,0,28.888.808,27.615,27.615,0,0,0,22.227,0,22.5,22.5,0,0,0,6.485,5.751,18.414,18.414,0,0,0,.176,19.779a17.644,17.644,0,0,0,2.316,8.889A24.15,24.15,0,0,0,8.98,35.839a80.83,80.83,0,0,0,13.386,7.513,57.884,57.884,0,0,1,8.906,4.9A13.174,13.174,0,0,1,34.8,51.98,7.462,7.462,0,0,1,35.9,55.8a7.574,7.574,0,0,1-2.908,5.873,11.924,11.924,0,0,1-8.108,2.607,19.108,19.108,0,0,1-12.692-5.139c-3.946-3.428-6.661-8.517-8.06-15.117L4.037,43.6l-.1-.507H0V69.93H3.743l.166-.382.145-.321a5.674,5.674,0,0,1,1.92-2.485,3.773,3.773,0,0,1,2.059-.774,9.973,9.973,0,0,1,3.476.879A47.912,47.912,0,0,0,18.8,69.274a28.984,28.984,0,0,0,6.262.656c7.019,0,12.905-2.059,17.487-6.12,4.629-4.1,6.979-9.078,6.979-14.792a18.692,18.692,0,0,0-4.284-12.064" transform="translate(-741.422 -320.835)" fill="#3666b1"/>
    <path id="Path_89" data-name="Path 89" d="M138.055,40.417l-2.509-1.809-.538-.385-.372.548-.311.463a19.638,19.638,0,0,1-4.936,5.471,8.652,8.652,0,0,1-4.818,1.42,9.431,9.431,0,0,1-7.438-3.614c-2.6-3.009-4.142-7.141-4.581-12.283h25.669l-.027-.669-.024-.568c-.277-7.492-2.269-13.257-5.92-17.132a17.561,17.561,0,0,0-13.139-5.893,20.965,20.965,0,0,0-15.617,7c-4.392,4.625-6.627,10.894-6.627,18.63,0,6.309,1.511,11.682,4.493,15.979,3.763,5.416,9.369,8.165,16.658,8.165a19.966,19.966,0,0,0,11.259-3.249c3.212-2.14,6.157-5.785,8.764-10.836l.213-.423.247-.487ZM112.274,22.538c0-3.952.92-7.073,2.735-9.278a4.035,4.035,0,0,1,3.361-1.647,3.762,3.762,0,0,1,2.133.517,6.331,6.331,0,0,1,2.333,3.178c.341.95.754,3.026.811,7.54H112.274Z" transform="translate(-510.776 -306.634)" fill="#3666b1"/>
  </g>
</svg>